#tb 0: 1/25
#media_type 0: video
#codec_id 0: rawvideo
#dimensions 0: 416x240
#sar 0: 0/1
0,          0,          0,        1,   149760, 0x8ce7200b
0,          1,          1,        1,   149760, 0x73610669
0,          2,          2,        1,   149760, 0xc01620f4
0,          3,          3,        1,   149760, 0x847a4297
0,          8,          8,        1,   149760, 0x8b2db700
0,          9,          9,        1,   149760, 0x17b1d77c
0,         10,         10,        1,   149760, 0xc31ee8a5
0,         11,         11,        1,   149760, 0x19541295
0,         12,         12,        1,   149760, 0xd050be45
0,         13,         13,        1,   149760, 0x45cf8e84
0,         14,         14,        1,   149760, 0x0dd3e4d4
0,         16,         16,        1,   149760, 0xc8347a7c
0,         17,         17,        1,   149760, 0x24089674
0,         18,         18,        1,   149760, 0xdf2c44e4
0,         19,         19,        1,   149760, 0x83f5100b
0,         20,         20,        1,   149760, 0x9a060faf
0,         24,         24,        1,   149760, 0x4cdc6101
0,         25,         25,        1,   149760, 0xe492ad68
0,         26,         26,        1,   149760, 0x35b73887
0,         27,         27,        1,   149760, 0x259f898a
0,         28,         28,        1,   149760, 0x21df021b
0,         29,         29,        1,   149760, 0xdddc1cfe
0,         32,         32,        1,   149760, 0x53841bf5
0,         33,         33,        1,   149760, 0x16745d74
0,         34,         34,        1,   149760, 0x66e79e6a
0,         35,         35,        1,   149760, 0x35f04b5a
0,         40,         40,        1,   149760, 0x1472eee7
0,         41,         41,        1,   149760, 0x42d0147c
0,         42,         42,        1,   149760, 0x57c9bdc2
0,         43,         43,        1,   149760, 0x20ad4cc7
0,         44,         44,        1,   149760, 0x1617ef6c
0,         45,         45,        1,   149760, 0xccdf4da2
0,         46,         46,        1,   149760, 0xc173b762
0,         47,         47,        1,   149760, 0xe7390c69
0,         48,         48,        1,   149760, 0xfd0c97d3
0,         49,         49,        1,   149760, 0xaeb2d61f
0,         50,         50,        1,   149760, 0xe7b114d2
0,         51,         51,        1,   149760, 0x1b771de4
0,         52,         52,        1,   149760, 0xd3e03840
0,         53,         53,        1,   149760, 0x702ef44b
0,         57,         57,        1,   149760, 0xe96f848b
0,         58,         58,        1,   149760, 0xa0ae24d9
0,         59,         59,        1,   149760, 0x1b9efdfb
0,         60,         60,        1,   149760, 0xceac9bc7
0,         61,         61,        1,   149760, 0x73078700
0,         62,         62,        1,   149760, 0xa736637e
0,         63,         63,        1,   149760, 0xbd353c9d
0,         64,         64,        1,   149760, 0x750a23ba
0,         65,         65,        1,   149760, 0x4144c56e
